<svg viewBox="0 0 600 600" xmlns="http://www.w3.org/2000/svg">
<path d="m449.33 465.27c-6.9372 4.888-14.272 3.4536-21.494 2.671-4.8464-0.52512-9.649-1.5602-14.503-1.8881-16.743-1.1308-33.5-2.0593-50.252-3.0477-6.0832-0.35895-12.172-0.62164-18.253-1.0212-3.4216-0.22482-6.825-0.82574-10.247-0.93091-8.0997-0.2489-12.397 0.49017-12.446 10.463-0.10126 20.413 0.38196 40.834 0.94064 61.244 0.25104 9.1705 1.4173 18.312 1.8848 27.482 0.49371 9.6838-7.0226 15.162-17.221 12.815-2.0938 5.1664-9.3016 7.2559-14.422 5.2229-3.5407-1.4057-7.3247-5.441-12.667 0.04718-1.3818-5.7837-2.9063-10.472-3.5307-15.277-0.56995-4.3862-1.183-7.9705-5.7818-10.322-1.5869-0.8114-2.1045-4.6711-2.2443-7.1866-0.55032-9.9053-0.83725-19.828-1.0714-29.747-0.3992-16.914-0.72736-33.831-0.98383-50.748-0.053833-3.5525-1.5518-5.0738-5.0934-5.0663-22.329 0.047729-44.671-0.42648-66.982 0.20059-12.521 0.35193-24.992 2.4966-37.488 3.8012-1.1532 0.12039-2.4103 0.27252-3.4833-0.046814-4.2318-1.2595-8.4093-2.7013-12.784-4.1333 1.2136-1.3337 2.7613-3.0345 5.0136-5.5095-3.1134-0.19058-4.9087-0.30048-7.345-0.44962 1.626-1.3191 2.8927-2.3467 3.6178-2.935-0.89639-4.1625-1.6306-7.9139-2.5587-11.617-0.20587-0.82132-1.0902-2.0818-1.6723-2.0874-1.8781-0.018158-4.995-0.12942-5.449 0.82971-4.0522 8.5596-13.049 8.4648-19.963 11.937-1.5701 0.78854-3.2158 1.4782-4.8951 1.9887-6.2074 1.8868-10.74-1.8675-15.706-4.4673-1.1175 0.68796-2.4932 1.5349-3.9035 2.403-3.6791-4.7926-4.6508-10.286-4.3279-16.097 0.24118-4.341-0.53208-7.8721-6.015-7.97v-5.308c0-87.65-0.066345-175.3 0.088463-262.95 0.018249-10.337 1.2108-20.674 1.9373-31.005 0.33116-4.7094 3.7574-6.8599 7.5927-8.4081 9.3452-3.7724 18.876-7.1197 28.061-11.241 5.7609-2.5848 10.798-3.1665 17.149-1.2655 7.6851 2.3002 16.023 2.6788 24.123 3.2664 9.7235 0.70544 19.493 0.811 29.246 1.0747 14.248 0.38527 28.498 0.74468 42.75 0.99849 21.914 0.39028 43.829 0.88139 65.745 0.94405 14.415 0.041222 28.836-0.4873 43.248-0.95779 16.673-0.54429 33.346-1.1534 50.004-2.0161 15.265-0.7905 30.534-1.6971 45.755-3.068 7.3801-0.66474 14.639-2.6001 21.982-3.7826 3.7644-0.60626 7.049 0.20344 9.3399 3.7971 6.0247 9.4504 9.1852 19.792 9.962 30.9 0.4249 6.0757 1.3074 12.207 0.88788 18.236-0.90677 13.032-2.7178 25.999-3.7746 39.024-0.70755 8.7204-0.0495 17.597-1.2978 26.215-1.22 8.4231 0.9144 15.851 3.4586 23.533 1.4 4.2271 2.344 8.7349 2.6262 13.171 0.40311 6.335-3.3912 10.475-9.6621 12.06-2.8722 0.72595-5.6284 1.9111-7.6205 2.6039 3.0948 9.2206 6.0596 17.644 8.7088 26.165 0.95346 3.0668 1.4504 6.3524 1.6311 9.5677 0.50061 8.908 0.67648 17.834 1.0698 26.748 0.62521 14.171 1.3674 28.337 1.966 42.508 0.21985 5.2051 3.3745 8.2961 7.8405 9.1425 9.5605 1.8119 19.279 2.7723 28.908 4.2491 8.3233 1.2766 16.711 2.3851 24.856 4.4254 2.5632 0.64212 5.2341 3.6814 6.4568 6.2814 2.8859 6.1365 5.0551 12.625 7.2806 19.053 2.1501 6.21-1.6653 11.974-8.1405 13.28-3.7394 0.75424-7.614 1.67-10.95 3.423-7.032 3.6956-14.42 3.0096-21.675 2.2052-9.789-1.0853-19.441-3.4765-29.238-4.3906-4.3601-0.40686-5.6836 3.9395-6.3347 7.825-0.63843 3.81-0.96133 7.7705-2.2876 11.344-1.8021 4.8553-4.6014 8.7643-10.958 8.7073-3.0188-0.027038-6.0546 1.8427-9.4091 3.0868m-317.33-181.93c0.33333 3.9185 0.98498 7.84 0.94806 11.755-0.23036 24.416-0.769 48.83-0.88129 73.246-0.054046 11.749 0.67122 23.499 0.90674 35.252 0.14354 7.1626 0.088699 14.331-0.002915 21.495-0.03891 3.0437-1.979 6.3563 2.4169 9.351 7.787-3.4372 16.262-6.7581 24.345-10.852 10.133-5.1323 20.935-7.6383 32.024-8.4414 12.874-0.93237 25.822-0.89596 38.741-1.1096 9.3292-0.15427 18.664 0.039551 27.994-0.063873 3.8274-0.042419 7.4734-0.44656 7.5665-5.7991 0.18079-10.401 1.0047-20.811 0.69608-31.191-0.10995-3.6985-1.2011-7.6654-5.755-10.148-13.829-7.5397-27.562-15.348-40.746-23.951-12.308-8.0318-24.169-16.833-35.644-26.025-7.7171-6.1815-15.082-13.075-21.426-20.638-10.673-12.723-16.927-27.897-21.411-43.825-1.7858-6.3442-0.75404-9.7082 5.0719-12.334 9.9337-4.4765 19.849-9.053 30.035-12.888 5.6382-2.1227 11.789-3.8535 17.747-3.9837 21.486-0.46971 42.989-0.17007 64.485-0.19406 5.9561-0.006653 6.7756-0.97345 6.911-6.8023 0.25738-11.081 0.62741-22.16 0.9873-33.238 0.12839-3.9526 2.2036-5.715 6.1959-6.0309 3.9921-0.31587 7.9353-1.2724 11.89-2.0007 0.43085-0.079346 0.90573-0.42476 1.1779-0.78459 4.8723-6.4401 12.905-7.3222 19.394-10.903 0.88107-0.48627 3.3234 0.16022 3.8679 1.0234 5.261 8.3392 9.667 17.116 10.414 27.153 0.58731 7.8945 0.66113 15.826 1.0761 23.735 0.19464 3.7096 1.377 6.7003 5.8988 6.9224 2.2418 0.11012 4.4635 0.88632 6.6958 0.89317 22.663 0.069565 45.326 0.042267 67.988 0.042999 1.3331 4.6e-5 2.7253-0.24432 3.9895 0.052795 7.459 1.753 10.171-1.7847 10.424-8.8462 0.23529-6.5874 0.50116-13.18 1.0244-19.749 0.43967-5.5199 1.4648-10.994 1.8773-16.515 0.54053-7.2355 0.97666-14.501 0.86798-21.744-0.021331-1.4202-2.6186-3.8133-4.2205-3.9877-3.3405-0.36368-6.8049 0.52217-10.227 0.77547-9.4996 0.70314-18.997 1.4747-28.508 1.9814-14.663 0.78119-29.343 2.0418-44.005 1.9143-63.495-0.55194-127.02 2.0221-190.49-1.826-6.4967-0.39391-9.1835 2.5219-9.3338 9.0712-0.36528 15.916-0.85681 31.832-0.96805 47.75-0.16417 23.495-0.042389 46.992-0.042389 71.456m216.5-14.334c-6.326 0-12.652-5.49e-4 -18.978 1.53e-4 -7.6373 8.24e-4 -8.5168 0.9007-8.5201 8.8095-0.006653 15.981 0.38837 31.976-0.16538 47.938-0.28009 8.0747 2.256 12.643 10.077 15.369 22.492 7.8399 44.771 16.291 67.174 24.39 4.8045 1.737 9.7274 3.2347 14.707 4.3407 1.3599 0.30203 4.195-0.91388 4.4962-1.9651 0.78488-2.7398 0.82617-5.7915 0.65326-8.6883-0.51706-8.6649-1.4751-17.306-1.8955-25.973-0.53656-11.063-0.82455-22.141-1.0161-33.217-0.16156-9.3384 2.069-12.142 11.186-13.95 4.967-0.98498 10.039-1.5015 13.345-5.9577 0.74289-1.0012 1.4344-2.4497 1.284-3.5769-0.12347-0.92544-1.412-2.1975-2.3899-2.4229-5.1586-1.1888-10.343-2.5395-15.592-3.0056-10.947-0.97226-21.932-1.7382-32.916-2.0114-13.476-0.33514-26.966-0.079956-41.451-0.079956m-81.5 22.466v-21.832h-50.482c-0.17999 0.4538-0.36 0.90756-0.53999 1.3614 14.503 14.694 31.62 25.845 50.012 36.953 0.39438-6.0562 0.70175-10.777 1.0091-16.483m85.34 123.53c9.496 0.46707 18.992 0.93417 28.488 1.4012 0.20337-0.58069 0.40674-1.1614 0.61011-1.7421-1.1948-0.88062-2.2663-2.1553-3.6055-2.5743-6.1157-1.9134-12.362-3.4149-18.458-5.3861-9.2777-3.0005-18.478-6.2421-27.695-9.4276-7.6707-2.6511-9.4154-1.701-10.662 5.958-0.91626 5.6292 1.7706 10.501 6.1349 10.739 8.069 0.44012 16.148 0.69778 25.187 1.0315z"/>
<path d="m447.76 49.648c-7.0443 8.8139-13.726 17.443-20.761 25.774-4.9767 5.8927-12 6.171-18.981 5.4029-1.3557-0.14916-3.112-1.8565-3.6587-3.2478-2.2196-5.6489-3.2034-11.45-0.99966-17.462 3.6353-9.9179 7.0995-19.898 10.675-29.838 0.26227-0.7291 0.68726-1.6898 1.2957-1.9605 8.4647-3.7667 16.251-9.3838 26.114-9.3607 3.8993 0.00913 6.3156 1.6802 8.1384 5.0413 4.7956 8.8431 4.2103 17.229-1.8222 25.652z"/>
<path d="m127.74 16.694c6.7991-3.135 7.8844-2.9105 10.789 3.4278 5.9379 12.958 11.861 25.932 17.313 39.098 1.4815 3.5773 4.3842 8.3883 0.43785 11.7-4.528 3.8002-10.559 5.7144-16.35 3.3-4.7927-1.998-9.1841-5.1702-13.398-8.3003-8.4265-6.2588-14.288-13.88-15.793-25.03-1.6208-12.005 1.613-18.795 13.497-22.877 1.0606-0.3643 2.1296-0.7044 3.5048-1.3191z"/>
</svg>
